<mxfile host="app.diagrams.net" modified="2023-07-26T09:57:53.269Z" agent="Mozilla/5.0 (Windows NT 10.0; Win64; x64) AppleWebKit/537.36 (KHTML, like Gecko) Chrome/115.0.0.0 Safari/537.36 Edg/115.0.1901.183" etag="1cV2vclEYjBdvhLlWrfQ" version="21.6.5" type="github">
  <diagram name="第 1 页" id="3Xgbba0ORXf_LveAMJya">
    <mxGraphModel dx="2154" dy="1241" grid="1" gridSize="12" guides="1" tooltips="1" connect="1" arrows="0" fold="1" page="1" pageScale="1" pageWidth="827" pageHeight="1169" background="#F0F0F0" math="0" shadow="0">
      <root>
        <mxCell id="0" />
        <mxCell id="1" parent="0" />
        <mxCell id="aTKhmGbnFtDpC1Z9xzVG-124" value="" style="shape=table;startSize=0;container=1;collapsible=0;childLayout=tableLayout;hachureGap=4;fontFamily=Architects Daughter;fontSource=https%3A%2F%2Ffonts.googleapis.com%2Fcss%3Ffamily%3DArchitects%2BDaughter;fontSize=20;dashed=1;strokeWidth=2;fillColor=#FFFFFF;fillStyle=cross-hatch;" vertex="1" parent="1">
          <mxGeometry x="100" y="120" width="120" height="1080" as="geometry" />
        </mxCell>
        <mxCell id="aTKhmGbnFtDpC1Z9xzVG-125" value="" style="shape=tableRow;horizontal=0;startSize=0;swimlaneHead=0;swimlaneBody=0;strokeColor=inherit;top=0;left=0;bottom=0;right=0;collapsible=0;dropTarget=0;fillColor=none;points=[[0,0.5],[1,0.5]];portConstraint=eastwest;sketch=1;hachureGap=4;jiggle=2;curveFitting=1;fontFamily=Architects Daughter;fontSource=https%3A%2F%2Ffonts.googleapis.com%2Fcss%3Ffamily%3DArchitects%2BDaughter;fontSize=20;dashed=1;strokeWidth=2;" vertex="1" parent="aTKhmGbnFtDpC1Z9xzVG-124">
          <mxGeometry width="120" height="1080" as="geometry" />
        </mxCell>
        <mxCell id="aTKhmGbnFtDpC1Z9xzVG-126" value="" style="shape=partialRectangle;html=1;whiteSpace=wrap;connectable=0;strokeColor=inherit;overflow=hidden;fillColor=none;top=0;left=0;bottom=0;right=0;pointerEvents=1;sketch=1;hachureGap=4;jiggle=2;curveFitting=1;fontFamily=Architects Daughter;fontSource=https%3A%2F%2Ffonts.googleapis.com%2Fcss%3Ffamily%3DArchitects%2BDaughter;fontSize=20;strokeWidth=2;" vertex="1" parent="aTKhmGbnFtDpC1Z9xzVG-125">
          <mxGeometry width="120" height="1080" as="geometry">
            <mxRectangle width="120" height="1080" as="alternateBounds" />
          </mxGeometry>
        </mxCell>
        <mxCell id="aTKhmGbnFtDpC1Z9xzVG-127" value="" style="shape=table;startSize=0;container=1;collapsible=0;childLayout=tableLayout;hachureGap=4;fontFamily=Architects Daughter;fontSource=https%3A%2F%2Ffonts.googleapis.com%2Fcss%3Ffamily%3DArchitects%2BDaughter;fontSize=20;dashed=1;strokeWidth=2;fontStyle=0;fillColor=#FFFFFF;fillStyle=cross-hatch;" vertex="1" parent="1">
          <mxGeometry x="242.5" y="120" width="1360" height="150" as="geometry" />
        </mxCell>
        <mxCell id="aTKhmGbnFtDpC1Z9xzVG-128" value="" style="shape=tableRow;horizontal=0;startSize=0;swimlaneHead=0;swimlaneBody=0;strokeColor=inherit;top=0;left=0;bottom=0;right=0;collapsible=0;dropTarget=0;fillColor=none;points=[[0,0.5],[1,0.5]];portConstraint=eastwest;sketch=1;hachureGap=4;jiggle=2;curveFitting=1;fontFamily=Architects Daughter;fontSource=https%3A%2F%2Ffonts.googleapis.com%2Fcss%3Ffamily%3DArchitects%2BDaughter;fontSize=20;dashed=1;strokeWidth=2;" vertex="1" parent="aTKhmGbnFtDpC1Z9xzVG-127">
          <mxGeometry width="1360" height="150" as="geometry" />
        </mxCell>
        <mxCell id="aTKhmGbnFtDpC1Z9xzVG-129" value="" style="shape=partialRectangle;html=1;whiteSpace=wrap;connectable=0;strokeColor=inherit;overflow=hidden;fillColor=none;top=0;left=0;bottom=0;right=0;pointerEvents=1;sketch=1;hachureGap=4;jiggle=2;curveFitting=1;fontFamily=Helvetica;fontSize=20;strokeWidth=2;" vertex="1" parent="aTKhmGbnFtDpC1Z9xzVG-128">
          <mxGeometry width="1360" height="150" as="geometry">
            <mxRectangle width="1360" height="150" as="alternateBounds" />
          </mxGeometry>
        </mxCell>
        <mxCell id="aTKhmGbnFtDpC1Z9xzVG-130" value="" style="image;points=[];aspect=fixed;html=1;align=center;shadow=0;dashed=0;image=img/lib/allied_telesis/computer_and_terminals/Personal_Computer.svg;sketch=1;hachureGap=4;jiggle=2;curveFitting=1;fontFamily=Architects Daughter;fontSource=https%3A%2F%2Ffonts.googleapis.com%2Fcss%3Ffamily%3DArchitects%2BDaughter;fontSize=20;" vertex="1" parent="1">
          <mxGeometry x="310" y="150.00000000000003" width="45.6" height="61.800000000000004" as="geometry" />
        </mxCell>
        <mxCell id="aTKhmGbnFtDpC1Z9xzVG-132" value="" style="image;points=[];aspect=fixed;html=1;align=center;shadow=0;dashed=0;image=img/lib/allied_telesis/computer_and_terminals/Personal_Computer.svg;hachureGap=4;fontFamily=Architects Daughter;fontSource=https%3A%2F%2Ffonts.googleapis.com%2Fcss%3Ffamily%3DArchitects%2BDaughter;fontSize=20;" vertex="1" parent="1">
          <mxGeometry x="414" y="150" width="45.6" height="61.800000000000004" as="geometry" />
        </mxCell>
        <mxCell id="aTKhmGbnFtDpC1Z9xzVG-133" value="运维后台" style="text;html=1;strokeColor=none;fillColor=none;align=center;verticalAlign=middle;whiteSpace=wrap;rounded=0;fontSize=18;fontFamily=Architects Daughter;" vertex="1" parent="1">
          <mxGeometry x="280" y="230" width="100" height="30" as="geometry" />
        </mxCell>
        <mxCell id="aTKhmGbnFtDpC1Z9xzVG-134" value="监控后台" style="text;html=1;strokeColor=none;fillColor=none;align=center;verticalAlign=middle;whiteSpace=wrap;rounded=0;fontSize=18;fontFamily=Architects Daughter;" vertex="1" parent="1">
          <mxGeometry x="400" y="230" width="100" height="30" as="geometry" />
        </mxCell>
        <mxCell id="aTKhmGbnFtDpC1Z9xzVG-135" value="" style="endArrow=none;html=1;rounded=0;hachureGap=4;fontFamily=Architects Daughter;fontSource=https%3A%2F%2Ffonts.googleapis.com%2Fcss%3Ffamily%3DArchitects%2BDaughter;fontSize=16;dashed=1;strokeWidth=2;" edge="1" parent="1">
          <mxGeometry width="50" height="50" relative="1" as="geometry">
            <mxPoint x="549.5" y="270" as="sourcePoint" />
            <mxPoint x="549.5" y="120" as="targetPoint" />
          </mxGeometry>
        </mxCell>
        <mxCell id="aTKhmGbnFtDpC1Z9xzVG-138" value="" style="verticalLabelPosition=bottom;verticalAlign=top;html=1;shadow=0;dashed=0;strokeWidth=1;shape=mxgraph.android.tab2;strokeColor=#c0c0c0;direction=north;hachureGap=4;fontFamily=Architects Daughter;fontSource=https%3A%2F%2Ffonts.googleapis.com%2Fcss%3Ffamily%3DArchitects%2BDaughter;fontSize=20;gradientColor=none;" vertex="1" parent="1">
          <mxGeometry x="620" y="145.35" width="130" height="80" as="geometry" />
        </mxCell>
        <mxCell id="aTKhmGbnFtDpC1Z9xzVG-139" value="" style="verticalLabelPosition=bottom;verticalAlign=top;html=1;shadow=0;dashed=0;strokeWidth=1;shape=mxgraph.android.phone2;strokeColor=#c0c0c0;hachureGap=4;fontFamily=Architects Daughter;fontSource=https%3A%2F%2Ffonts.googleapis.com%2Fcss%3Ffamily%3DArchitects%2BDaughter;fontSize=20;" vertex="1" parent="1">
          <mxGeometry x="870" y="145.35" width="40" height="80" as="geometry" />
        </mxCell>
        <mxCell id="aTKhmGbnFtDpC1Z9xzVG-140" value="" style="image;points=[];aspect=fixed;html=1;align=center;shadow=0;dashed=0;image=img/lib/allied_telesis/computer_and_terminals/Personal_Computer.svg;sketch=1;hachureGap=4;jiggle=2;curveFitting=1;fontFamily=Architects Daughter;fontSource=https%3A%2F%2Ffonts.googleapis.com%2Fcss%3Ffamily%3DArchitects%2BDaughter;fontSize=20;" vertex="1" parent="1">
          <mxGeometry x="1072.2" y="147.67" width="55.6" height="75.35" as="geometry" />
        </mxCell>
        <mxCell id="aTKhmGbnFtDpC1Z9xzVG-141" value="Android" style="text;html=1;strokeColor=none;fillColor=none;align=center;verticalAlign=middle;whiteSpace=wrap;rounded=0;fontSize=18;fontFamily=Architects Daughter;" vertex="1" parent="1">
          <mxGeometry x="630" y="225.35" width="100" height="30" as="geometry" />
        </mxCell>
        <mxCell id="aTKhmGbnFtDpC1Z9xzVG-142" value="IOS" style="text;html=1;strokeColor=none;fillColor=none;align=center;verticalAlign=middle;whiteSpace=wrap;rounded=0;fontSize=18;fontFamily=Architects Daughter;" vertex="1" parent="1">
          <mxGeometry x="840" y="230" width="100" height="30" as="geometry" />
        </mxCell>
        <mxCell id="aTKhmGbnFtDpC1Z9xzVG-143" value="管理后台" style="text;html=1;strokeColor=none;fillColor=none;align=center;verticalAlign=middle;whiteSpace=wrap;rounded=0;fontSize=18;fontFamily=Architects Daughter;" vertex="1" parent="1">
          <mxGeometry x="1370" y="225.35" width="100" height="30" as="geometry" />
        </mxCell>
        <mxCell id="aTKhmGbnFtDpC1Z9xzVG-144" value="" style="endArrow=none;html=1;rounded=0;hachureGap=4;fontFamily=Architects Daughter;fontSource=https%3A%2F%2Ffonts.googleapis.com%2Fcss%3Ffamily%3DArchitects%2BDaughter;fontSize=16;exitX=0.33;exitY=1.041;exitDx=0;exitDy=0;exitPerimeter=0;dashed=1;strokeWidth=2;" edge="1" parent="1">
          <mxGeometry width="50" height="50" relative="1" as="geometry">
            <mxPoint x="1260" y="273" as="sourcePoint" />
            <mxPoint x="1260" y="117" as="targetPoint" />
          </mxGeometry>
        </mxCell>
        <mxCell id="aTKhmGbnFtDpC1Z9xzVG-145" value="" style="image;points=[];aspect=fixed;html=1;align=center;shadow=0;dashed=0;image=img/lib/allied_telesis/computer_and_terminals/Personal_Computer.svg;sketch=1;hachureGap=4;jiggle=2;curveFitting=1;fontFamily=Architects Daughter;fontSource=https%3A%2F%2Ffonts.googleapis.com%2Fcss%3Ffamily%3DArchitects%2BDaughter;fontSize=20;" vertex="1" parent="1">
          <mxGeometry x="1390" y="145.35" width="55.6" height="75.35" as="geometry" />
        </mxCell>
        <mxCell id="aTKhmGbnFtDpC1Z9xzVG-146" value="PC端" style="text;html=1;strokeColor=none;fillColor=none;align=center;verticalAlign=middle;whiteSpace=wrap;rounded=0;fontSize=18;fontFamily=Architects Daughter;" vertex="1" parent="1">
          <mxGeometry x="1040.4" y="230" width="100" height="30" as="geometry" />
        </mxCell>
        <mxCell id="aTKhmGbnFtDpC1Z9xzVG-147" value="" style="shape=table;startSize=0;container=1;collapsible=0;childLayout=tableLayout;hachureGap=4;fontFamily=Architects Daughter;fontSource=https%3A%2F%2Ffonts.googleapis.com%2Fcss%3Ffamily%3DArchitects%2BDaughter;fontSize=20;dashed=1;strokeWidth=2;rounded=1;fillColor=#FFFFFF;fillStyle=cross-hatch;" vertex="1" parent="1">
          <mxGeometry x="410" y="280" width="840" height="230" as="geometry" />
        </mxCell>
        <mxCell id="aTKhmGbnFtDpC1Z9xzVG-148" value="" style="shape=tableRow;horizontal=0;startSize=0;swimlaneHead=0;swimlaneBody=0;strokeColor=inherit;top=0;left=0;bottom=0;right=0;collapsible=0;dropTarget=0;fillColor=none;points=[[0,0.5],[1,0.5]];portConstraint=eastwest;sketch=1;hachureGap=4;jiggle=2;curveFitting=1;fontFamily=Architects Daughter;fontSource=https%3A%2F%2Ffonts.googleapis.com%2Fcss%3Ffamily%3DArchitects%2BDaughter;fontSize=20;dashed=1;strokeWidth=2;" vertex="1" parent="aTKhmGbnFtDpC1Z9xzVG-147">
          <mxGeometry width="840" height="230" as="geometry" />
        </mxCell>
        <mxCell id="aTKhmGbnFtDpC1Z9xzVG-149" value="" style="shape=partialRectangle;html=1;whiteSpace=wrap;connectable=0;strokeColor=inherit;overflow=hidden;fillColor=none;top=0;left=0;bottom=0;right=0;pointerEvents=1;sketch=1;hachureGap=4;jiggle=2;curveFitting=1;fontFamily=Architects Daughter;fontSource=https%3A%2F%2Ffonts.googleapis.com%2Fcss%3Ffamily%3DArchitects%2BDaughter;fontSize=20;strokeWidth=2;" vertex="1" parent="aTKhmGbnFtDpC1Z9xzVG-148">
          <mxGeometry width="840" height="230" as="geometry">
            <mxRectangle width="840" height="230" as="alternateBounds" />
          </mxGeometry>
        </mxCell>
        <mxCell id="aTKhmGbnFtDpC1Z9xzVG-150" value="" style="shape=table;startSize=0;container=1;collapsible=0;childLayout=tableLayout;hachureGap=4;fontFamily=Architects Daughter;fontSource=https%3A%2F%2Ffonts.googleapis.com%2Fcss%3Ffamily%3DArchitects%2BDaughter;fontSize=20;dashed=1;strokeWidth=2;fillColor=#FFFFFF;fillStyle=cross-hatch;" vertex="1" parent="1">
          <mxGeometry x="242.5" y="280" width="130" height="730" as="geometry" />
        </mxCell>
        <mxCell id="aTKhmGbnFtDpC1Z9xzVG-151" value="" style="shape=tableRow;horizontal=0;startSize=0;swimlaneHead=0;swimlaneBody=0;strokeColor=inherit;top=0;left=0;bottom=0;right=0;collapsible=0;dropTarget=0;fillColor=none;points=[[0,0.5],[1,0.5]];portConstraint=eastwest;sketch=1;hachureGap=4;jiggle=2;curveFitting=1;fontFamily=Architects Daughter;fontSource=https%3A%2F%2Ffonts.googleapis.com%2Fcss%3Ffamily%3DArchitects%2BDaughter;fontSize=20;dashed=1;strokeWidth=2;" vertex="1" parent="aTKhmGbnFtDpC1Z9xzVG-150">
          <mxGeometry width="130" height="730" as="geometry" />
        </mxCell>
        <mxCell id="aTKhmGbnFtDpC1Z9xzVG-152" value="" style="shape=partialRectangle;html=1;whiteSpace=wrap;connectable=0;strokeColor=inherit;overflow=hidden;fillColor=none;top=0;left=0;bottom=0;right=0;pointerEvents=1;sketch=1;hachureGap=4;jiggle=2;curveFitting=1;fontFamily=Architects Daughter;fontSource=https%3A%2F%2Ffonts.googleapis.com%2Fcss%3Ffamily%3DArchitects%2BDaughter;fontSize=20;strokeWidth=2;" vertex="1" parent="aTKhmGbnFtDpC1Z9xzVG-151">
          <mxGeometry width="130" height="730" as="geometry">
            <mxRectangle width="130" height="730" as="alternateBounds" />
          </mxGeometry>
        </mxCell>
        <mxCell id="aTKhmGbnFtDpC1Z9xzVG-153" value="" style="shape=table;startSize=0;container=1;collapsible=0;childLayout=tableLayout;hachureGap=4;fontFamily=Architects Daughter;fontSource=https%3A%2F%2Ffonts.googleapis.com%2Fcss%3Ffamily%3DArchitects%2BDaughter;fontSize=20;dashed=1;strokeWidth=2;fillColor=#FFFFFF;fillStyle=cross-hatch;" vertex="1" parent="1">
          <mxGeometry x="1310" y="280" width="130" height="740" as="geometry" />
        </mxCell>
        <mxCell id="aTKhmGbnFtDpC1Z9xzVG-154" value="" style="shape=tableRow;horizontal=0;startSize=0;swimlaneHead=0;swimlaneBody=0;strokeColor=inherit;top=0;left=0;bottom=0;right=0;collapsible=0;dropTarget=0;fillColor=none;points=[[0,0.5],[1,0.5]];portConstraint=eastwest;sketch=1;hachureGap=4;jiggle=2;curveFitting=1;fontFamily=Architects Daughter;fontSource=https%3A%2F%2Ffonts.googleapis.com%2Fcss%3Ffamily%3DArchitects%2BDaughter;fontSize=20;dashed=1;strokeWidth=2;" vertex="1" parent="aTKhmGbnFtDpC1Z9xzVG-153">
          <mxGeometry width="130" height="740" as="geometry" />
        </mxCell>
        <mxCell id="aTKhmGbnFtDpC1Z9xzVG-155" value="" style="shape=partialRectangle;html=1;whiteSpace=wrap;connectable=0;strokeColor=inherit;overflow=hidden;fillColor=none;top=0;left=0;bottom=0;right=0;pointerEvents=1;sketch=1;hachureGap=4;jiggle=2;curveFitting=1;fontFamily=Architects Daughter;fontSource=https%3A%2F%2Ffonts.googleapis.com%2Fcss%3Ffamily%3DArchitects%2BDaughter;fontSize=20;strokeWidth=2;" vertex="1" parent="aTKhmGbnFtDpC1Z9xzVG-154">
          <mxGeometry width="130" height="740" as="geometry">
            <mxRectangle width="130" height="740" as="alternateBounds" />
          </mxGeometry>
        </mxCell>
        <mxCell id="aTKhmGbnFtDpC1Z9xzVG-156" value="人物形象设置" style="rounded=1;whiteSpace=wrap;html=1;hachureGap=4;fontFamily=Architects Daughter;fontSource=https%3A%2F%2Ffonts.googleapis.com%2Fcss%3Ffamily%3DArchitects%2BDaughter;fontSize=20;shadow=0;glass=1;fillColor=#f0a30a;strokeColor=#BD7000;fontColor=#000000;" vertex="1" parent="1">
          <mxGeometry x="430" y="310" width="140" height="60" as="geometry" />
        </mxCell>
        <mxCell id="aTKhmGbnFtDpC1Z9xzVG-157" value="展示大厅" style="rounded=1;whiteSpace=wrap;html=1;hachureGap=4;fontFamily=Architects Daughter;fontSource=https%3A%2F%2Ffonts.googleapis.com%2Fcss%3Ffamily%3DArchitects%2BDaughter;fontSize=20;shadow=0;glass=1;fillColor=#f0a30a;strokeColor=#BD7000;fontColor=#000000;" vertex="1" parent="1">
          <mxGeometry x="610" y="310" width="140" height="60" as="geometry" />
        </mxCell>
        <mxCell id="aTKhmGbnFtDpC1Z9xzVG-158" value="积分兑换" style="rounded=1;whiteSpace=wrap;html=1;hachureGap=4;fontFamily=Architects Daughter;fontSource=https%3A%2F%2Ffonts.googleapis.com%2Fcss%3Ffamily%3DArchitects%2BDaughter;fontSize=20;shadow=0;glass=1;fillColor=#f0a30a;strokeColor=#BD7000;fontColor=#000000;" vertex="1" parent="1">
          <mxGeometry x="800" y="310" width="140" height="60" as="geometry" />
        </mxCell>
        <mxCell id="aTKhmGbnFtDpC1Z9xzVG-159" value="群组聊天" style="rounded=1;whiteSpace=wrap;html=1;hachureGap=4;fontFamily=Architects Daughter;fontSource=https%3A%2F%2Ffonts.googleapis.com%2Fcss%3Ffamily%3DArchitects%2BDaughter;fontSize=20;shadow=0;glass=1;fillColor=#f0a30a;strokeColor=#BD7000;fontColor=#000000;" vertex="1" parent="1">
          <mxGeometry x="990" y="310" width="140" height="60" as="geometry" />
        </mxCell>
        <mxCell id="aTKhmGbnFtDpC1Z9xzVG-160" value="新媒体" style="rounded=1;whiteSpace=wrap;html=1;hachureGap=4;fontFamily=Architects Daughter;fontSource=https%3A%2F%2Ffonts.googleapis.com%2Fcss%3Ffamily%3DArchitects%2BDaughter;fontSize=20;shadow=0;glass=1;fillColor=#f0a30a;strokeColor=#BD7000;fontColor=#000000;" vertex="1" parent="1">
          <mxGeometry x="430" y="410" width="140" height="60" as="geometry" />
        </mxCell>
        <mxCell id="aTKhmGbnFtDpC1Z9xzVG-161" value="邮件通知" style="rounded=1;whiteSpace=wrap;html=1;hachureGap=4;fontFamily=Architects Daughter;fontSource=https%3A%2F%2Ffonts.googleapis.com%2Fcss%3Ffamily%3DArchitects%2BDaughter;fontSize=20;shadow=0;glass=1;fillColor=#f0a30a;strokeColor=#BD7000;fontColor=#000000;" vertex="1" parent="1">
          <mxGeometry x="610" y="410" width="140" height="60" as="geometry" />
        </mxCell>
        <mxCell id="aTKhmGbnFtDpC1Z9xzVG-162" value="课程教程" style="rounded=1;whiteSpace=wrap;html=1;hachureGap=4;fontFamily=Architects Daughter;fontSource=https%3A%2F%2Ffonts.googleapis.com%2Fcss%3Ffamily%3DArchitects%2BDaughter;fontSize=20;shadow=0;glass=1;fillColor=#f0a30a;strokeColor=#BD7000;fontColor=#000000;" vertex="1" parent="1">
          <mxGeometry x="800" y="410" width="140" height="60" as="geometry" />
        </mxCell>
        <mxCell id="aTKhmGbnFtDpC1Z9xzVG-163" value="新手指引" style="rounded=1;whiteSpace=wrap;html=1;hachureGap=4;fontFamily=Architects Daughter;fontSource=https%3A%2F%2Ffonts.googleapis.com%2Fcss%3Ffamily%3DArchitects%2BDaughter;fontSize=20;shadow=0;glass=1;fillColor=#f0a30a;strokeColor=#BD7000;fontColor=#000000;" vertex="1" parent="1">
          <mxGeometry x="990" y="410" width="140" height="60" as="geometry" />
        </mxCell>
        <mxCell id="aTKhmGbnFtDpC1Z9xzVG-164" value="" style="shape=table;startSize=0;container=1;collapsible=0;childLayout=tableLayout;hachureGap=4;fontFamily=Architects Daughter;fontSource=https%3A%2F%2Ffonts.googleapis.com%2Fcss%3Ffamily%3DArchitects%2BDaughter;fontSize=20;dashed=1;strokeWidth=2;rounded=1;fillColor=#FFFFFF;fillStyle=cross-hatch;" vertex="1" parent="1">
          <mxGeometry x="410" y="580" width="840" height="130" as="geometry" />
        </mxCell>
        <mxCell id="aTKhmGbnFtDpC1Z9xzVG-165" value="" style="shape=tableRow;horizontal=0;startSize=0;swimlaneHead=0;swimlaneBody=0;strokeColor=inherit;top=0;left=0;bottom=0;right=0;collapsible=0;dropTarget=0;fillColor=none;points=[[0,0.5],[1,0.5]];portConstraint=eastwest;sketch=1;hachureGap=4;jiggle=2;curveFitting=1;fontFamily=Architects Daughter;fontSource=https%3A%2F%2Ffonts.googleapis.com%2Fcss%3Ffamily%3DArchitects%2BDaughter;fontSize=20;dashed=1;strokeWidth=2;" vertex="1" parent="aTKhmGbnFtDpC1Z9xzVG-164">
          <mxGeometry width="840" height="130" as="geometry" />
        </mxCell>
        <mxCell id="aTKhmGbnFtDpC1Z9xzVG-166" value="" style="shape=partialRectangle;html=1;whiteSpace=wrap;connectable=0;strokeColor=inherit;overflow=hidden;fillColor=none;top=0;left=0;bottom=0;right=0;pointerEvents=1;sketch=1;hachureGap=4;jiggle=2;curveFitting=1;fontFamily=Architects Daughter;fontSource=https%3A%2F%2Ffonts.googleapis.com%2Fcss%3Ffamily%3DArchitects%2BDaughter;fontSize=20;strokeWidth=2;" vertex="1" parent="aTKhmGbnFtDpC1Z9xzVG-165">
          <mxGeometry width="840" height="130" as="geometry">
            <mxRectangle width="840" height="130" as="alternateBounds" />
          </mxGeometry>
        </mxCell>
        <mxCell id="aTKhmGbnFtDpC1Z9xzVG-168" value="gateway网关服务" style="rounded=1;whiteSpace=wrap;html=1;hachureGap=4;fontFamily=Architects Daughter;fontSource=https%3A%2F%2Ffonts.googleapis.com%2Fcss%3Ffamily%3DArchitects%2BDaughter;fontSize=20;shadow=0;glass=1;fillColor=#dae8fc;strokeColor=#6c8ebf;" vertex="1" parent="1">
          <mxGeometry x="459.6" y="620" width="260.4" height="60" as="geometry" />
        </mxCell>
        <mxCell id="aTKhmGbnFtDpC1Z9xzVG-169" value="gateway网关服务" style="rounded=1;whiteSpace=wrap;html=1;hachureGap=4;fontFamily=Architects Daughter;fontSource=https%3A%2F%2Ffonts.googleapis.com%2Fcss%3Ffamily%3DArchitects%2BDaughter;fontSize=20;shadow=0;glass=1;fillColor=#dae8fc;strokeColor=#6c8ebf;" vertex="1" parent="1">
          <mxGeometry x="920.0000000000001" y="620" width="260.4" height="60" as="geometry" />
        </mxCell>
        <mxCell id="aTKhmGbnFtDpC1Z9xzVG-171" value="" style="html=1;shadow=0;dashed=0;align=center;verticalAlign=middle;shape=mxgraph.arrows2.arrow;dy=0.6;dx=40;direction=south;notch=0;sketch=1;hachureGap=4;jiggle=2;curveFitting=1;fontFamily=Architects Daughter;fontSource=https%3A%2F%2Ffonts.googleapis.com%2Fcss%3Ffamily%3DArchitects%2BDaughter;fontSize=20;" vertex="1" parent="1">
          <mxGeometry x="580" y="510" width="30" height="60" as="geometry" />
        </mxCell>
        <mxCell id="aTKhmGbnFtDpC1Z9xzVG-172" value="" style="html=1;shadow=0;dashed=0;align=center;verticalAlign=middle;shape=mxgraph.arrows2.arrow;dy=0.6;dx=40;direction=north;notch=0;sketch=1;hachureGap=4;jiggle=2;curveFitting=1;fontFamily=Architects Daughter;fontSource=https%3A%2F%2Ffonts.googleapis.com%2Fcss%3Ffamily%3DArchitects%2BDaughter;fontSize=20;" vertex="1" parent="1">
          <mxGeometry x="560" y="730" width="30" height="60" as="geometry" />
        </mxCell>
        <mxCell id="aTKhmGbnFtDpC1Z9xzVG-173" value="注册" style="text;html=1;strokeColor=none;fillColor=none;align=center;verticalAlign=middle;whiteSpace=wrap;rounded=0;fontSize=20;fontFamily=Architects Daughter;" vertex="1" parent="1">
          <mxGeometry x="610" y="510" width="60" height="30" as="geometry" />
        </mxCell>
        <mxCell id="aTKhmGbnFtDpC1Z9xzVG-174" value="发现" style="text;html=1;strokeColor=none;fillColor=none;align=center;verticalAlign=middle;whiteSpace=wrap;rounded=0;fontSize=20;fontFamily=Architects Daughter;" vertex="1" parent="1">
          <mxGeometry x="1040" y="550" width="60" height="30" as="geometry" />
        </mxCell>
        <mxCell id="aTKhmGbnFtDpC1Z9xzVG-175" value="" style="shape=table;startSize=0;container=1;collapsible=0;childLayout=tableLayout;hachureGap=4;fontFamily=Architects Daughter;fontSource=https%3A%2F%2Ffonts.googleapis.com%2Fcss%3Ffamily%3DArchitects%2BDaughter;fontSize=20;dashed=1;strokeWidth=2;rounded=1;fillColor=#FFFFFF;fillStyle=cross-hatch;" vertex="1" parent="1">
          <mxGeometry x="420" y="790" width="830" height="230" as="geometry" />
        </mxCell>
        <mxCell id="aTKhmGbnFtDpC1Z9xzVG-176" value="" style="shape=tableRow;horizontal=0;startSize=0;swimlaneHead=0;swimlaneBody=0;strokeColor=inherit;top=0;left=0;bottom=0;right=0;collapsible=0;dropTarget=0;fillColor=none;points=[[0,0.5],[1,0.5]];portConstraint=eastwest;sketch=1;hachureGap=4;jiggle=2;curveFitting=1;fontFamily=Architects Daughter;fontSource=https%3A%2F%2Ffonts.googleapis.com%2Fcss%3Ffamily%3DArchitects%2BDaughter;fontSize=20;dashed=1;strokeWidth=2;" vertex="1" parent="aTKhmGbnFtDpC1Z9xzVG-175">
          <mxGeometry width="830" height="230" as="geometry" />
        </mxCell>
        <mxCell id="aTKhmGbnFtDpC1Z9xzVG-177" value="" style="shape=partialRectangle;html=1;whiteSpace=wrap;connectable=0;strokeColor=inherit;overflow=hidden;fillColor=none;top=0;left=0;bottom=0;right=0;pointerEvents=1;sketch=1;hachureGap=4;jiggle=2;curveFitting=1;fontFamily=Architects Daughter;fontSource=https%3A%2F%2Ffonts.googleapis.com%2Fcss%3Ffamily%3DArchitects%2BDaughter;fontSize=20;strokeWidth=2;" vertex="1" parent="aTKhmGbnFtDpC1Z9xzVG-176">
          <mxGeometry width="830" height="230" as="geometry">
            <mxRectangle width="830" height="230" as="alternateBounds" />
          </mxGeometry>
        </mxCell>
        <mxCell id="aTKhmGbnFtDpC1Z9xzVG-178" value="" style="html=1;shadow=0;dashed=0;align=center;verticalAlign=middle;shape=mxgraph.arrows2.arrow;dy=0.6;dx=40;direction=north;notch=0;sketch=1;hachureGap=4;jiggle=2;curveFitting=1;fontFamily=Architects Daughter;fontSource=https%3A%2F%2Ffonts.googleapis.com%2Fcss%3Ffamily%3DArchitects%2BDaughter;fontSize=20;" vertex="1" parent="1">
          <mxGeometry x="1000" y="520" width="30" height="60" as="geometry" />
        </mxCell>
        <mxCell id="aTKhmGbnFtDpC1Z9xzVG-179" value="" style="html=1;shadow=0;dashed=0;align=center;verticalAlign=middle;shape=mxgraph.arrows2.arrow;dy=0.6;dx=40;direction=south;notch=0;sketch=1;hachureGap=4;jiggle=2;curveFitting=1;fontFamily=Architects Daughter;fontSource=https%3A%2F%2Ffonts.googleapis.com%2Fcss%3Ffamily%3DArchitects%2BDaughter;fontSize=20;" vertex="1" parent="1">
          <mxGeometry x="1040" y="710" width="30" height="60" as="geometry" />
        </mxCell>
        <mxCell id="aTKhmGbnFtDpC1Z9xzVG-180" value="注册" style="text;html=1;strokeColor=none;fillColor=none;align=center;verticalAlign=middle;whiteSpace=wrap;rounded=0;fontSize=20;fontFamily=Architects Daughter;" vertex="1" parent="1">
          <mxGeometry x="590" y="760" width="60" height="30" as="geometry" />
        </mxCell>
        <mxCell id="aTKhmGbnFtDpC1Z9xzVG-181" value="发现" style="text;html=1;strokeColor=none;fillColor=none;align=center;verticalAlign=middle;whiteSpace=wrap;rounded=0;fontSize=20;fontFamily=Architects Daughter;" vertex="1" parent="1">
          <mxGeometry x="1070" y="710" width="60" height="30" as="geometry" />
        </mxCell>
        <mxCell id="aTKhmGbnFtDpC1Z9xzVG-182" value="用户服务" style="rounded=1;whiteSpace=wrap;html=1;hachureGap=4;fontFamily=Architects Daughter;fontSource=https%3A%2F%2Ffonts.googleapis.com%2Fcss%3Ffamily%3DArchitects%2BDaughter;fontSize=20;shadow=0;glass=1;fillColor=#f8cecc;strokeColor=#b85450;" vertex="1" parent="1">
          <mxGeometry x="440" y="810" width="140" height="60" as="geometry" />
        </mxCell>
        <mxCell id="aTKhmGbnFtDpC1Z9xzVG-183" value="积分服务" style="rounded=1;whiteSpace=wrap;html=1;hachureGap=4;fontFamily=Architects Daughter;fontSource=https%3A%2F%2Ffonts.googleapis.com%2Fcss%3Ffamily%3DArchitects%2BDaughter;fontSize=20;shadow=0;glass=1;fillColor=#f8cecc;strokeColor=#b85450;" vertex="1" parent="1">
          <mxGeometry x="620" y="810" width="140" height="60" as="geometry" />
        </mxCell>
        <mxCell id="aTKhmGbnFtDpC1Z9xzVG-184" value="通知服务" style="rounded=1;whiteSpace=wrap;html=1;hachureGap=4;fontFamily=Architects Daughter;fontSource=https%3A%2F%2Ffonts.googleapis.com%2Fcss%3Ffamily%3DArchitects%2BDaughter;fontSize=20;shadow=0;glass=1;fillColor=#f8cecc;strokeColor=#b85450;" vertex="1" parent="1">
          <mxGeometry x="810" y="810" width="140" height="60" as="geometry" />
        </mxCell>
        <mxCell id="aTKhmGbnFtDpC1Z9xzVG-185" value="IM通讯服务" style="rounded=1;whiteSpace=wrap;html=1;hachureGap=4;fontFamily=Architects Daughter;fontSource=https%3A%2F%2Ffonts.googleapis.com%2Fcss%3Ffamily%3DArchitects%2BDaughter;fontSize=20;shadow=0;glass=1;fillColor=#f8cecc;strokeColor=#b85450;" vertex="1" parent="1">
          <mxGeometry x="1030" y="810" width="140" height="60" as="geometry" />
        </mxCell>
        <mxCell id="aTKhmGbnFtDpC1Z9xzVG-186" value="地图服务" style="rounded=1;whiteSpace=wrap;html=1;hachureGap=4;fontFamily=Architects Daughter;fontSource=https%3A%2F%2Ffonts.googleapis.com%2Fcss%3Ffamily%3DArchitects%2BDaughter;fontSize=20;shadow=0;glass=1;fillColor=#f8cecc;strokeColor=#b85450;" vertex="1" parent="1">
          <mxGeometry x="440" y="920" width="140" height="60" as="geometry" />
        </mxCell>
        <mxCell id="aTKhmGbnFtDpC1Z9xzVG-187" value="课程培训服务" style="rounded=1;whiteSpace=wrap;html=1;hachureGap=4;fontFamily=Architects Daughter;fontSource=https%3A%2F%2Ffonts.googleapis.com%2Fcss%3Ffamily%3DArchitects%2BDaughter;fontSize=20;shadow=0;glass=1;fillColor=#f8cecc;strokeColor=#b85450;" vertex="1" parent="1">
          <mxGeometry x="640" y="920" width="140" height="60" as="geometry" />
        </mxCell>
        <mxCell id="aTKhmGbnFtDpC1Z9xzVG-188" value="数据统计服务" style="rounded=1;whiteSpace=wrap;html=1;hachureGap=4;fontFamily=Architects Daughter;fontSource=https%3A%2F%2Ffonts.googleapis.com%2Fcss%3Ffamily%3DArchitects%2BDaughter;fontSize=20;shadow=0;glass=1;fillColor=#f8cecc;strokeColor=#b85450;" vertex="1" parent="1">
          <mxGeometry x="830" y="920" width="140" height="60" as="geometry" />
        </mxCell>
        <mxCell id="aTKhmGbnFtDpC1Z9xzVG-189" value="任务调度服务" style="rounded=1;whiteSpace=wrap;html=1;hachureGap=4;fontFamily=Architects Daughter;fontSource=https%3A%2F%2Ffonts.googleapis.com%2Fcss%3Ffamily%3DArchitects%2BDaughter;fontSize=20;shadow=0;glass=1;fillColor=#f8cecc;strokeColor=#b85450;" vertex="1" parent="1">
          <mxGeometry x="1040.4" y="920" width="140" height="60" as="geometry" />
        </mxCell>
        <mxCell id="aTKhmGbnFtDpC1Z9xzVG-190" value="" style="shape=table;startSize=0;container=1;collapsible=0;childLayout=tableLayout;hachureGap=4;fontFamily=Architects Daughter;fontSource=https%3A%2F%2Ffonts.googleapis.com%2Fcss%3Ffamily%3DArchitects%2BDaughter;fontSize=20;dashed=1;strokeWidth=2;fillColor=#FFFFFF;fillStyle=cross-hatch;" vertex="1" parent="1">
          <mxGeometry x="240" y="1040" width="1200" height="160" as="geometry" />
        </mxCell>
        <mxCell id="aTKhmGbnFtDpC1Z9xzVG-191" value="" style="shape=tableRow;horizontal=0;startSize=0;swimlaneHead=0;swimlaneBody=0;strokeColor=inherit;top=0;left=0;bottom=0;right=0;collapsible=0;dropTarget=0;fillColor=none;points=[[0,0.5],[1,0.5]];portConstraint=eastwest;sketch=1;hachureGap=4;jiggle=2;curveFitting=1;fontFamily=Architects Daughter;fontSource=https%3A%2F%2Ffonts.googleapis.com%2Fcss%3Ffamily%3DArchitects%2BDaughter;fontSize=20;dashed=1;strokeWidth=2;" vertex="1" parent="aTKhmGbnFtDpC1Z9xzVG-190">
          <mxGeometry width="1200" height="160" as="geometry" />
        </mxCell>
        <mxCell id="aTKhmGbnFtDpC1Z9xzVG-192" value="" style="shape=partialRectangle;html=1;whiteSpace=wrap;connectable=0;strokeColor=inherit;overflow=hidden;fillColor=none;top=0;left=0;bottom=0;right=0;pointerEvents=1;sketch=1;hachureGap=4;jiggle=2;curveFitting=1;fontFamily=Architects Daughter;fontSource=https%3A%2F%2Ffonts.googleapis.com%2Fcss%3Ffamily%3DArchitects%2BDaughter;fontSize=20;strokeWidth=2;" vertex="1" parent="aTKhmGbnFtDpC1Z9xzVG-191">
          <mxGeometry width="1200" height="160" as="geometry">
            <mxRectangle width="1200" height="160" as="alternateBounds" />
          </mxGeometry>
        </mxCell>
        <mxCell id="aTKhmGbnFtDpC1Z9xzVG-193" value="MYSQL" style="rounded=1;whiteSpace=wrap;html=1;hachureGap=4;fontFamily=Architects Daughter;fontSource=https%3A%2F%2Ffonts.googleapis.com%2Fcss%3Ffamily%3DArchitects%2BDaughter;fontSize=20;shadow=0;glass=1;fillColor=#60a917;strokeColor=#2D7600;fontColor=#ffffff;" vertex="1" parent="1">
          <mxGeometry x="280" y="1080" width="140" height="60" as="geometry" />
        </mxCell>
        <mxCell id="aTKhmGbnFtDpC1Z9xzVG-194" value="redis服务" style="rounded=1;whiteSpace=wrap;html=1;hachureGap=4;fontFamily=Architects Daughter;fontSource=https%3A%2F%2Ffonts.googleapis.com%2Fcss%3Ffamily%3DArchitects%2BDaughter;fontSize=20;shadow=0;glass=1;fillColor=#60a917;strokeColor=#2D7600;fontColor=#ffffff;" vertex="1" parent="1">
          <mxGeometry x="480" y="1080" width="140" height="60" as="geometry" />
        </mxCell>
        <mxCell id="aTKhmGbnFtDpC1Z9xzVG-195" value="rocketMQ" style="rounded=1;whiteSpace=wrap;html=1;hachureGap=4;fontFamily=Architects Daughter;fontSource=https%3A%2F%2Ffonts.googleapis.com%2Fcss%3Ffamily%3DArchitects%2BDaughter;fontSize=20;shadow=0;glass=1;fillColor=#60a917;strokeColor=#2D7600;fontColor=#ffffff;" vertex="1" parent="1">
          <mxGeometry x="680" y="1080" width="140" height="60" as="geometry" />
        </mxCell>
        <mxCell id="aTKhmGbnFtDpC1Z9xzVG-196" value="ElastticSearch" style="rounded=1;whiteSpace=wrap;html=1;hachureGap=4;fontFamily=Architects Daughter;fontSource=https%3A%2F%2Ffonts.googleapis.com%2Fcss%3Ffamily%3DArchitects%2BDaughter;fontSize=20;shadow=0;glass=1;fillColor=#60a917;strokeColor=#2D7600;fontColor=#ffffff;" vertex="1" parent="1">
          <mxGeometry x="880" y="1080" width="140" height="60" as="geometry" />
        </mxCell>
        <mxCell id="aTKhmGbnFtDpC1Z9xzVG-197" value="OOS" style="rounded=1;whiteSpace=wrap;html=1;hachureGap=4;fontFamily=Architects Daughter;fontSource=https%3A%2F%2Ffonts.googleapis.com%2Fcss%3Ffamily%3DArchitects%2BDaughter;fontSize=20;shadow=0;glass=1;fillColor=#60a917;strokeColor=#2D7600;fontColor=#ffffff;" vertex="1" parent="1">
          <mxGeometry x="1090" y="1080" width="140" height="60" as="geometry" />
        </mxCell>
        <mxCell id="aTKhmGbnFtDpC1Z9xzVG-198" value="注册中心&amp;amp;配置中心" style="text;html=1;strokeColor=none;fillColor=none;align=center;verticalAlign=middle;whiteSpace=wrap;rounded=0;fontSize=20;fontFamily=Architects Daughter;" vertex="1" parent="1">
          <mxGeometry x="1320" y="290" width="110" height="70" as="geometry" />
        </mxCell>
        <mxCell id="aTKhmGbnFtDpC1Z9xzVG-199" value="" style="shape=doubleArrow;whiteSpace=wrap;html=1;sketch=1;hachureGap=4;jiggle=2;curveFitting=1;fontFamily=Architects Daughter;fontSource=https%3A%2F%2Ffonts.googleapis.com%2Fcss%3Ffamily%3DArchitects%2BDaughter;fontSize=20;" vertex="1" parent="1">
          <mxGeometry x="1250" y="630" width="60" height="30" as="geometry" />
        </mxCell>
        <mxCell id="aTKhmGbnFtDpC1Z9xzVG-200" value="" style="shape=doubleArrow;whiteSpace=wrap;html=1;sketch=1;hachureGap=4;jiggle=2;curveFitting=1;fontFamily=Architects Daughter;fontSource=https%3A%2F%2Ffonts.googleapis.com%2Fcss%3Ffamily%3DArchitects%2BDaughter;fontSize=20;" vertex="1" parent="1">
          <mxGeometry x="1250" y="880" width="60" height="30" as="geometry" />
        </mxCell>
        <mxCell id="aTKhmGbnFtDpC1Z9xzVG-202" value="nacos&lt;br&gt;服务注册" style="rounded=1;whiteSpace=wrap;html=1;hachureGap=4;fontFamily=Architects Daughter;fontSource=https%3A%2F%2Ffonts.googleapis.com%2Fcss%3Ffamily%3DArchitects%2BDaughter;fontSize=20;shadow=0;glass=1;fillColor=#1ba1e2;strokeColor=#006EAF;fontColor=#ffffff;" vertex="1" parent="1">
          <mxGeometry x="1325" y="415" width="100" height="50" as="geometry" />
        </mxCell>
        <mxCell id="aTKhmGbnFtDpC1Z9xzVG-203" value="nacos&lt;br&gt;服务发现" style="rounded=1;whiteSpace=wrap;html=1;hachureGap=4;fontFamily=Architects Daughter;fontSource=https%3A%2F%2Ffonts.googleapis.com%2Fcss%3Ffamily%3DArchitects%2BDaughter;fontSize=20;shadow=0;glass=1;fillColor=#1ba1e2;strokeColor=#006EAF;fontColor=#ffffff;" vertex="1" parent="1">
          <mxGeometry x="1322.5" y="660" width="100" height="50" as="geometry" />
        </mxCell>
        <mxCell id="aTKhmGbnFtDpC1Z9xzVG-204" value="nacos&lt;br&gt;配置中心" style="rounded=1;whiteSpace=wrap;html=1;hachureGap=4;fontFamily=Architects Daughter;fontSource=https%3A%2F%2Ffonts.googleapis.com%2Fcss%3Ffamily%3DArchitects%2BDaughter;fontSize=20;shadow=0;glass=1;fillColor=#1ba1e2;strokeColor=#006EAF;fontColor=#ffffff;" vertex="1" parent="1">
          <mxGeometry x="1330" y="870" width="95" height="50" as="geometry" />
        </mxCell>
        <mxCell id="aTKhmGbnFtDpC1Z9xzVG-205" value="XXLJOB" style="rounded=1;whiteSpace=wrap;html=1;hachureGap=4;fontFamily=Architects Daughter;fontSource=https%3A%2F%2Ffonts.googleapis.com%2Fcss%3Ffamily%3DArchitects%2BDaughter;fontSize=20;shadow=0;glass=1;fillColor=#60a917;strokeColor=#2D7600;fontColor=#ffffff;" vertex="1" parent="1">
          <mxGeometry x="1282.5" y="1080" width="140" height="60" as="geometry" />
        </mxCell>
        <mxCell id="aTKhmGbnFtDpC1Z9xzVG-207" value="展示层" style="rounded=1;whiteSpace=wrap;html=1;hachureGap=4;fontFamily=Architects Daughter;fontSource=https%3A%2F%2Ffonts.googleapis.com%2Fcss%3Ffamily%3DArchitects%2BDaughter;fontSize=20;shadow=0;glass=1;fillColor=#6d8764;strokeColor=#3A5431;fontColor=#ffffff;" vertex="1" parent="1">
          <mxGeometry x="110" y="170" width="100" height="64.65" as="geometry" />
        </mxCell>
        <mxCell id="aTKhmGbnFtDpC1Z9xzVG-208" value="业务层" style="rounded=1;whiteSpace=wrap;html=1;hachureGap=4;fontFamily=Architects Daughter;fontSource=https%3A%2F%2Ffonts.googleapis.com%2Fcss%3Ffamily%3DArchitects%2BDaughter;fontSize=20;shadow=0;glass=1;fillColor=#6d8764;strokeColor=#3A5431;fontColor=#ffffff;" vertex="1" parent="1">
          <mxGeometry x="110" y="350.35" width="100" height="64.65" as="geometry" />
        </mxCell>
        <mxCell id="aTKhmGbnFtDpC1Z9xzVG-209" value="网关层" style="rounded=1;whiteSpace=wrap;html=1;hachureGap=4;fontFamily=Architects Daughter;fontSource=https%3A%2F%2Ffonts.googleapis.com%2Fcss%3Ffamily%3DArchitects%2BDaughter;fontSize=20;shadow=0;glass=1;fillColor=#6d8764;strokeColor=#3A5431;fontColor=#ffffff;" vertex="1" parent="1">
          <mxGeometry x="110" y="600" width="100" height="64.65" as="geometry" />
        </mxCell>
        <mxCell id="aTKhmGbnFtDpC1Z9xzVG-210" value="服务层" style="rounded=1;whiteSpace=wrap;html=1;hachureGap=4;fontFamily=Architects Daughter;fontSource=https%3A%2F%2Ffonts.googleapis.com%2Fcss%3Ffamily%3DArchitects%2BDaughter;fontSize=20;shadow=0;glass=1;fillColor=#6d8764;strokeColor=#3A5431;fontColor=#ffffff;" vertex="1" parent="1">
          <mxGeometry x="110" y="862.6700000000001" width="100" height="64.65" as="geometry" />
        </mxCell>
        <mxCell id="aTKhmGbnFtDpC1Z9xzVG-211" value="基础设施" style="rounded=1;whiteSpace=wrap;html=1;hachureGap=4;fontFamily=Architects Daughter;fontSource=https%3A%2F%2Ffonts.googleapis.com%2Fcss%3Ffamily%3DArchitects%2BDaughter;fontSize=20;shadow=0;glass=1;fillColor=#6d8764;strokeColor=#3A5431;fontColor=#ffffff;" vertex="1" parent="1">
          <mxGeometry x="110" y="1075.3500000000001" width="100" height="64.65" as="geometry" />
        </mxCell>
        <mxCell id="aTKhmGbnFtDpC1Z9xzVG-212" value="服务治理" style="text;html=1;strokeColor=none;fillColor=#FFFFFF;align=center;verticalAlign=middle;whiteSpace=wrap;rounded=0;fontSize=20;fontFamily=Architects Daughter;fillStyle=cross-hatch;" vertex="1" parent="1">
          <mxGeometry x="262.5" y="310" width="90" height="60" as="geometry" />
        </mxCell>
        <mxCell id="aTKhmGbnFtDpC1Z9xzVG-213" value="&lt;font style=&quot;font-size: 16px;&quot;&gt;sentinel&lt;br&gt;服务保障&lt;br&gt;&lt;/font&gt;" style="rounded=1;whiteSpace=wrap;html=1;hachureGap=4;fontFamily=Architects Daughter;fontSource=https%3A%2F%2Ffonts.googleapis.com%2Fcss%3Ffamily%3DArchitects%2BDaughter;fontSize=20;shadow=0;glass=1;fillColor=#76608a;strokeColor=#432D57;fontColor=#ffffff;" vertex="1" parent="1">
          <mxGeometry x="257.5" y="400" width="100" height="55" as="geometry" />
        </mxCell>
        <mxCell id="aTKhmGbnFtDpC1Z9xzVG-214" value="&lt;font style=&quot;font-size: 16px;&quot;&gt;springboot Admin&lt;br&gt;服务健康&lt;br&gt;&lt;/font&gt;" style="rounded=1;whiteSpace=wrap;html=1;hachureGap=4;fontFamily=Architects Daughter;fontSource=https%3A%2F%2Ffonts.googleapis.com%2Fcss%3Ffamily%3DArchitects%2BDaughter;fontSize=20;shadow=0;glass=1;fillColor=#76608a;strokeColor=#432D57;fontColor=#ffffff;" vertex="1" parent="1">
          <mxGeometry x="257.5" y="530" width="100" height="70" as="geometry" />
        </mxCell>
        <mxCell id="aTKhmGbnFtDpC1Z9xzVG-215" value="&lt;font style=&quot;font-size: 16px;&quot;&gt;security&lt;br&gt;安全控制&lt;br&gt;&lt;/font&gt;" style="rounded=1;whiteSpace=wrap;html=1;hachureGap=4;fontFamily=Architects Daughter;fontSource=https%3A%2F%2Ffonts.googleapis.com%2Fcss%3Ffamily%3DArchitects%2BDaughter;fontSize=20;shadow=0;glass=1;fillColor=#76608a;strokeColor=#432D57;fontColor=#ffffff;" vertex="1" parent="1">
          <mxGeometry x="257.5" y="675" width="100" height="55" as="geometry" />
        </mxCell>
        <mxCell id="aTKhmGbnFtDpC1Z9xzVG-216" value="&lt;font style=&quot;font-size: 16px;&quot;&gt;ELK日志采集&lt;br&gt;&lt;/font&gt;" style="rounded=1;whiteSpace=wrap;html=1;hachureGap=4;fontFamily=Architects Daughter;fontSource=https%3A%2F%2Ffonts.googleapis.com%2Fcss%3Ffamily%3DArchitects%2BDaughter;fontSize=20;shadow=0;glass=1;fillColor=#76608a;strokeColor=#432D57;fontColor=#ffffff;" vertex="1" parent="1">
          <mxGeometry x="257.5" y="790" width="100" height="55" as="geometry" />
        </mxCell>
        <mxCell id="aTKhmGbnFtDpC1Z9xzVG-217" value="&lt;font style=&quot;font-size: 16px;&quot;&gt;prometheus&lt;br&gt;监控系统&lt;br&gt;&lt;/font&gt;" style="rounded=1;whiteSpace=wrap;html=1;hachureGap=4;fontFamily=Architects Daughter;fontSource=https%3A%2F%2Ffonts.googleapis.com%2Fcss%3Ffamily%3DArchitects%2BDaughter;fontSize=20;shadow=0;glass=1;fillColor=#76608a;strokeColor=#432D57;fontColor=#ffffff;" vertex="1" parent="1">
          <mxGeometry x="257.5" y="910" width="100" height="55" as="geometry" />
        </mxCell>
        <mxCell id="aTKhmGbnFtDpC1Z9xzVG-218" value="" style="shape=table;startSize=0;container=1;collapsible=0;childLayout=tableLayout;hachureGap=4;fontFamily=Architects Daughter;fontSource=https%3A%2F%2Ffonts.googleapis.com%2Fcss%3Ffamily%3DArchitects%2BDaughter;fontSize=20;dashed=1;strokeWidth=2;fillColor=#FFFFFF;fillStyle=cross-hatch;" vertex="1" parent="1">
          <mxGeometry x="1470" y="280" width="130" height="920" as="geometry" />
        </mxCell>
        <mxCell id="aTKhmGbnFtDpC1Z9xzVG-219" value="" style="shape=tableRow;horizontal=0;startSize=0;swimlaneHead=0;swimlaneBody=0;strokeColor=inherit;top=0;left=0;bottom=0;right=0;collapsible=0;dropTarget=0;fillColor=none;points=[[0,0.5],[1,0.5]];portConstraint=eastwest;sketch=1;hachureGap=4;jiggle=2;curveFitting=1;fontFamily=Architects Daughter;fontSource=https%3A%2F%2Ffonts.googleapis.com%2Fcss%3Ffamily%3DArchitects%2BDaughter;fontSize=20;dashed=1;strokeWidth=2;swimlaneFillColor=none;" vertex="1" parent="aTKhmGbnFtDpC1Z9xzVG-218">
          <mxGeometry width="130" height="920" as="geometry" />
        </mxCell>
        <mxCell id="aTKhmGbnFtDpC1Z9xzVG-220" value="" style="shape=partialRectangle;html=1;whiteSpace=wrap;connectable=0;strokeColor=inherit;overflow=hidden;fillColor=none;top=0;left=0;bottom=0;right=0;pointerEvents=1;sketch=1;hachureGap=4;jiggle=2;curveFitting=1;fontFamily=Architects Daughter;fontSource=https%3A%2F%2Ffonts.googleapis.com%2Fcss%3Ffamily%3DArchitects%2BDaughter;fontSize=20;strokeWidth=2;" vertex="1" parent="aTKhmGbnFtDpC1Z9xzVG-219">
          <mxGeometry width="130" height="920" as="geometry">
            <mxRectangle width="130" height="920" as="alternateBounds" />
          </mxGeometry>
        </mxCell>
        <mxCell id="aTKhmGbnFtDpC1Z9xzVG-221" value="运维" style="text;html=1;strokeColor=none;fillColor=none;align=center;verticalAlign=middle;whiteSpace=wrap;rounded=0;fontSize=20;fontFamily=Architects Daughter;" vertex="1" parent="1">
          <mxGeometry x="1480" y="300" width="100" height="40" as="geometry" />
        </mxCell>
        <mxCell id="aTKhmGbnFtDpC1Z9xzVG-223" value="" style="dashed=0;outlineConnect=0;html=1;align=center;labelPosition=center;verticalLabelPosition=bottom;verticalAlign=top;shape=mxgraph.weblogos.messenger;sketch=1;hachureGap=4;jiggle=2;curveFitting=1;fontFamily=Architects Daughter;fontSource=https%3A%2F%2Ffonts.googleapis.com%2Fcss%3Ffamily%3DArchitects%2BDaughter;fontSize=20;" vertex="1" parent="1">
          <mxGeometry x="1494" y="410" width="82.60000000000001" height="76.80000000000001" as="geometry" />
        </mxCell>
        <mxCell id="aTKhmGbnFtDpC1Z9xzVG-224" value="" style="image;image=img/lib/atlassian/Bamboo_Logo.svg;html=1;sketch=1;hachureGap=4;jiggle=2;curveFitting=1;fontFamily=Architects Daughter;fontSource=https%3A%2F%2Ffonts.googleapis.com%2Fcss%3Ffamily%3DArchitects%2BDaughter;fontSize=20;" vertex="1" parent="1">
          <mxGeometry x="1498" y="606" width="64" height="74" as="geometry" />
        </mxCell>
        <mxCell id="aTKhmGbnFtDpC1Z9xzVG-225" value="" style="image;image=img/lib/atlassian/Crucible_Logo.svg;html=1;sketch=1;hachureGap=4;jiggle=2;curveFitting=1;fontFamily=Architects Daughter;fontSource=https%3A%2F%2Ffonts.googleapis.com%2Fcss%3Ffamily%3DArchitects%2BDaughter;fontSize=20;" vertex="1" parent="1">
          <mxGeometry x="1504.5" y="830" width="61" height="61" as="geometry" />
        </mxCell>
        <mxCell id="aTKhmGbnFtDpC1Z9xzVG-226" value="Git" style="text;html=1;strokeColor=none;fillColor=none;align=center;verticalAlign=middle;whiteSpace=wrap;rounded=0;fontSize=20;fontFamily=Architects Daughter;" vertex="1" parent="1">
          <mxGeometry x="1485.3" y="490" width="100" height="40" as="geometry" />
        </mxCell>
        <mxCell id="aTKhmGbnFtDpC1Z9xzVG-227" value="jenkins" style="text;html=1;strokeColor=none;fillColor=none;align=center;verticalAlign=middle;whiteSpace=wrap;rounded=0;fontSize=20;fontFamily=Architects Daughter;" vertex="1" parent="1">
          <mxGeometry x="1485" y="682.5" width="100" height="40" as="geometry" />
        </mxCell>
        <mxCell id="aTKhmGbnFtDpC1Z9xzVG-228" value="docker" style="text;html=1;strokeColor=none;fillColor=none;align=center;verticalAlign=middle;whiteSpace=wrap;rounded=0;fontSize=20;fontFamily=Architects Daughter;" vertex="1" parent="1">
          <mxGeometry x="1485.3" y="900" width="100" height="40" as="geometry" />
        </mxCell>
      </root>
    </mxGraphModel>
  </diagram>
</mxfile>
